<svg xmlns="http://www.w3.org/2000/svg" xmlns:xlink="http://www.w3.org/1999/xlink" version="1.1" width="256" height="256" viewBox="0 0 256 256" xml:space="preserve">

<defs>
</defs>
<g style="stroke: none; stroke-width: 0; stroke-dasharray: none; stroke-linecap: butt; stroke-linejoin: miter; stroke-miterlimit: 10; fill: none; fill-rule: nonzero; opacity: 1;" transform="translate(1.4065934065934016 1.4065934065934016) scale(2.81 2.81)" >
	<path d="M 85 0 H 5 C 2.239 0 0 2.239 0 5 v 80 c 0 2.762 2.239 5 5 5 h 80 c 2.762 0 5 -2.238 5 -5 V 5 C 90 2.239 87.762 0 85 0 z M 71.035 33.92 L 41.804 63.15 c -0.977 0.977 -2.256 1.465 -3.536 1.465 s -2.559 -0.488 -3.536 -1.465 L 18.964 47.383 c -1.953 -1.953 -1.953 -5.119 0 -7.071 c 1.953 -1.952 5.118 -1.952 7.071 0 l 12.233 12.232 l 25.696 -25.695 c 1.951 -1.952 5.119 -1.952 7.07 0 C 72.988 28.801 72.988 31.967 71.035 33.92 z" style="stroke: none; stroke-width: 1; stroke-dasharray: none; stroke-linecap: butt; stroke-linejoin: miter; stroke-miterlimit: 10; fill: rgb(0,0,0); fill-rule: nonzero; opacity: 1;" transform=" matrix(1 0 0 1 0 0) " stroke-linecap="round" />
</g>
</svg>