<svg xmlns="http://www.w3.org/2000/svg" xmlns:xlink="http://www.w3.org/1999/xlink" version="1.1" width="256" height="256" viewBox="0 0 256 256" xml:space="preserve">

<defs>
</defs>
<g style="stroke: none; stroke-width: 0; stroke-dasharray: none; stroke-linecap: butt; stroke-linejoin: miter; stroke-miterlimit: 10; fill: none; fill-rule: nonzero; opacity: 1;" transform="translate(1.4065934065934016 1.4065934065934016) scale(2.81 2.81)" >
	<path d="M 21.011 58.703 c -0.311 0 -0.61 -0.145 -0.803 -0.404 l -6.352 -8.553 v 7.957 c 0 0.553 -0.448 1 -1 1 s -1 -0.447 -1 -1 V 46.722 c 0 -0.432 0.276 -0.814 0.686 -0.949 c 0.408 -0.136 0.859 0.007 1.117 0.354 l 6.352 8.553 v -7.957 c 0 -0.553 0.448 -1 1 -1 s 1 0.447 1 1 v 10.981 c 0 0.432 -0.276 0.814 -0.686 0.949 C 21.222 58.687 21.116 58.703 21.011 58.703 z" style="stroke: none; stroke-width: 1; stroke-dasharray: none; stroke-linecap: butt; stroke-linejoin: miter; stroke-miterlimit: 10; fill: rgb(0,0,0); fill-rule: nonzero; opacity: 1;" transform=" matrix(1 0 0 1 0 0) " stroke-linecap="round" />
	<path d="M 32.666 53.212 c 0.552 0 1 -0.447 1 -1 s -0.448 -1 -1 -1 h -4.539 v -3.49 h 4.539 c 0.552 0 1 -0.447 1 -1 s -0.448 -1 -1 -1 h -5.539 c -0.552 0 -1 0.447 -1 1 v 10.981 c 0 0.553 0.448 1 1 1 h 5.539 c 0.552 0 1 -0.447 1 -1 s -0.448 -1 -1 -1 h -4.539 v -3.491 H 32.666 z" style="stroke: none; stroke-width: 1; stroke-dasharray: none; stroke-linecap: butt; stroke-linejoin: miter; stroke-miterlimit: 10; fill: rgb(0,0,0); fill-rule: nonzero; opacity: 1;" transform=" matrix(1 0 0 1 0 0) " stroke-linecap="round" />
	<path d="M 40.667 58.703 c -0.015 0 -0.03 0 -0.045 -0.001 c -0.448 -0.021 -0.828 -0.336 -0.929 -0.771 l -2.561 -10.981 c -0.125 -0.538 0.208 -1.076 0.747 -1.201 c 0.536 -0.126 1.076 0.208 1.201 0.746 l 1.752 7.514 l 2.505 -7.6 c 0.135 -0.41 0.518 -0.687 0.95 -0.687 l 0 0 c 0.432 0 0.814 0.277 0.95 0.687 l 2.505 7.6 l 1.753 -7.514 c 0.125 -0.538 0.657 -0.873 1.201 -0.746 c 0.537 0.125 0.872 0.663 0.746 1.201 L 48.88 57.931 c -0.102 0.437 -0.481 0.752 -0.929 0.771 c -0.471 0.034 -0.854 -0.26 -0.995 -0.686 l -2.669 -8.101 l -2.67 8.101 C 41.48 58.428 41.097 58.703 40.667 58.703 z" style="stroke: none; stroke-width: 1; stroke-dasharray: none; stroke-linecap: butt; stroke-linejoin: miter; stroke-miterlimit: 10; fill: rgb(0,0,0); fill-rule: nonzero; opacity: 1;" transform=" matrix(1 0 0 1 0 0) " stroke-linecap="round" />
	<path d="M 59.111 58.703 h -4.097 c -0.553 0 -1 -0.447 -1 -1 s 0.447 -1 1 -1 h 4.097 c 0.963 0 1.746 -0.783 1.746 -1.746 c 0 -0.962 -0.783 -1.745 -1.746 -1.745 H 57.76 c -2.065 0 -3.745 -1.68 -3.745 -3.745 s 1.68 -3.745 3.745 -3.745 h 3.164 c 0.553 0 1 0.447 1 1 s -0.447 1 -1 1 H 57.76 c -0.962 0 -1.745 0.783 -1.745 1.745 s 0.783 1.745 1.745 1.745 h 1.352 c 2.065 0 3.746 1.68 3.746 3.745 S 61.177 58.703 59.111 58.703 z" style="stroke: none; stroke-width: 1; stroke-dasharray: none; stroke-linecap: butt; stroke-linejoin: miter; stroke-miterlimit: 10; fill: rgb(0,0,0); fill-rule: nonzero; opacity: 1;" transform=" matrix(1 0 0 1 0 0) " stroke-linecap="round" />
	<path d="M 87.871 26.582 c 0 -0.061 -0.008 -0.12 -0.009 -0.18 c -0.193 -14.47 -11.922 -26.2 -26.393 -26.393 C 61.409 0.008 61.35 0 61.289 0 v 0.005 C 61.229 0.004 61.17 0 61.109 0 H 23.825 c -3.418 0 -6.199 2.781 -6.199 6.199 V 22.15 H 9.875 c -4.135 0 -7.513 3.26 -7.725 7.343 h -0.02 v 30.721 c 0 4.271 3.475 7.745 7.745 7.745 h 7.751 v 15.842 c 0 3.418 2.781 6.199 6.199 6.199 h 57.847 c 3.418 0 6.199 -2.781 6.199 -6.199 V 26.762 c 0 -0.06 -0.004 -0.12 -0.005 -0.18 H 87.871 z M 85.203 21.068 c -1.205 -0.96 -2.728 -1.539 -4.385 -1.539 h -7.691 c -2.639 0 -4.785 -2.147 -4.785 -4.786 V 7.053 c 0 -1.657 -0.578 -3.179 -1.539 -4.385 C 75.891 4.816 83.055 11.98 85.203 21.068 z M 9.875 24.15 h 7.751 v 11.088 H 9.875 c -3.1 0 -5.628 -2.47 -5.735 -5.544 C 4.247 26.619 6.774 24.15 9.875 24.15 z M 9.875 65.959 c -3.168 0 -5.745 -2.577 -5.745 -5.745 V 34.669 c 1.419 1.573 3.465 2.569 5.745 2.569 h 15.355 h 29.821 h 10.186 c 3.168 0 5.745 2.577 5.745 5.745 v 17.23 c 0 3.168 -2.577 5.745 -5.745 5.745 H 9.875 z M 85.871 83.801 c 0 2.315 -1.884 4.199 -4.199 4.199 H 23.825 c -2.315 0 -4.199 -1.884 -4.199 -4.199 V 67.959 h 45.61 c 4.271 0 7.745 -3.475 7.745 -7.745 v -17.23 c 0 -4.271 -3.475 -7.745 -7.745 -7.745 H 55.051 H 25.229 h -5.604 V 6.199 C 19.626 3.884 21.509 2 23.825 2 h 37.285 c 0.08 0 0.16 0.005 0.24 0.006 c 2.758 0.033 4.993 2.281 4.993 5.047 v 7.691 c 0 3.742 3.044 6.786 6.785 6.786 h 7.691 c 2.766 0 5.013 2.235 5.047 4.993 c 0.001 0.08 0.006 0.159 0.006 0.24 V 83.801 z" style="stroke: none; stroke-width: 1; stroke-dasharray: none; stroke-linecap: butt; stroke-linejoin: miter; stroke-miterlimit: 10; fill: rgb(0,0,0); fill-rule: nonzero; opacity: 1;" transform=" matrix(1 0 0 1 0 0) " stroke-linecap="round" />
</g>
</svg>