<svg xmlns="http://www.w3.org/2000/svg" xmlns:xlink="http://www.w3.org/1999/xlink" width="1440" height="217">  <defs fill="#fe8083">    <path d="M261.7 286.682c421.477 0 1488.977 176.078 1488.977 39.234s478.754-248.043 57.278-248.043c-198.746 0-468.566 3.555-719.957-11.23C806.271 50.076 541.9 27.227 344.977 52.438-27.665 100.145-159.776 286.683 261.7 286.683z" id="a" fill="#fe8083"/>  </defs>  <g transform="translate(-285 -41)" fill="none" fill-rule="evenodd">    <mask id="b" fill="#fff">      <use xlink:href="#a" fill="#fe8083"/>    </mask>    <use fill="#ffffff" xlink:href="#a"/>    <path d="M240.727 326.395c421.476 0 972.744 179.787 972.744 42.943s129.286-175.748-292.19-175.748-256.314-226.494-256.314-89.65c0 136.843-845.717 222.455-424.24 222.455z" fill="#ffabac" mask="url(#b)" transform="matrix(-1 0 0 1 1355.162 0)"/>    <path d="M445.7 387.682c421.477 0 972.745 179.787 972.745 42.943s579.941-255.246 158.465-255.246-706.969-146.996-706.969-10.152c0 136.843-845.717 222.455-424.24 222.455z" fill="#fe5659" mask="url(#b)"/>  </g></svg>